<?xml version="1.0" encoding="UTF-8"?>
<svg id="Layer_1" data-name="Layer 1" xmlns="http://www.w3.org/2000/svg" xmlns:xlink="http://www.w3.org/1999/xlink" viewBox="0 0 1921.02 1080">
  <defs>
    <style>
      .cls-1 {
        fill: url(#New_Pattern_Swatch_1);
      }

      .cls-1, .cls-2, .cls-3, .cls-4 {
        stroke-width: 0px;
      }

      .cls-2 {
        fill: #808285;
      }

      .cls-3 {
        fill: none;
      }

      .cls-4 {
        fill: #fff;
      }
    </style>
    <pattern id="New_Pattern_Swatch_1" data-name="New Pattern Swatch 1" x="0" y="0" width="172.8" height="96.12" patternTransform="translate(420.51)" patternUnits="userSpaceOnUse" viewBox="0 0 172.8 96.12">
      <g>
        <rect class="cls-3" x="0" width="172.8" height="96.12"/>
        <g>
          <g>
            <path class="cls-4" d="M125.69,24.89c-1.28.29-2.56.63-3.79,1.08-1.32.48-1.3.54-.75,1.79.99,2.25,1.98,4.5,2.96,6.75.11.26.23.52.35.81-3.85,2.15-7.69,4.06-11.75,5.47-1.06.37-2.19.6-3.3.75-1.12.15-1.56-.19-2-1.2-.76-1.73-1.56-3.45-2.26-5.2-.28-.7-.71-.95-1.36-.76-1.37.4-2.71.87-4.07,1.29-.6.19-.63.52-.39,1.04.86,1.89,1.68,3.8,2.52,5.71.89,2.03,1.34,2.3,3.59,2.13.32-.02.65-.05.96-.11,3.79-.73,7.35-2.14,10.82-3.78,2.9-1.37,5.74-2.88,8.64-4.24,1.53-.72,3.15-1.25,4.83-1.9-1.36-3.09-2.67-6.14-4.05-9.15-.12-.26-.67-.55-.95-.49Z"/>
            <path class="cls-4" d="M137.73,18.76c.66-.61,1.35-1.09,1.84-1.73.58-.74.34-1.2-.57-1.45-1.9-.53-3.57.2-4.49,1.99-.36.7-.13,1.32.64,1.37.83.06,1.68-.1,2.58-.17Z"/>
            <path class="cls-4" d="M90.35,41.84c-.35-.83-.87-1.08-1.63-.86-1.29.37-2.56.82-3.85,1.21-.64.2-.74.51-.46,1.13,1.57,3.5,3.07,7.03,4.65,10.52.66,1.46.38,2.71-.67,3.78-.63.64-1.42,1.13-2.13,1.69,0,.04,0,.08,0,.12.77-.21,1.55-.37,2.3-.63,2.15-.72,4.14-1.72,5.66-3.46.91-1.04,1.16-2.14.54-3.5-1.52-3.31-2.98-6.65-4.39-10.01Z"/>
            <path class="cls-4" d="M86.77,41.16c.66-.64,1.35-1.19,1.89-1.87.45-.57.24-1.01-.4-1.26-1.81-.72-4.05.24-4.78,2.03-.29.71-.09,1.2.69,1.26.83.06,1.68-.09,2.61-.16Z"/>
            <path class="cls-4" d="M30.98,70.22c2.23-1.24,4.4-2.29,6.39-3.61,1.49-.98,2.91-2.17,4.06-3.52,1.47-1.72.43-3.88-1.84-4.07-.85-.07-1.73.01-2.57.14-3.38.52-6.55,1.76-9.67,3.07-5.43,2.27-10.81,4.69-16.21,7.03-.66.29-.92.57-.57,1.34,1.88,4.19,3.72,8.4,5.55,12.62.25.58.64.85,1.19.7,1.75-.46,3.49-.99,5.35-1.53-1.1-2.51-2.11-4.8-3.17-7.21,1.44-.49,2.78-.95,4.12-1.41,4.29-1.47,8.67-1.96,13.16-1.28,2.87.43,5.74.82,8.54-.37,1.32-.56,2.63-1.15,3.96-1.74-6.1-1.15-12.13-2.04-18.28-.16Z"/>
            <path class="cls-4" d="M76.97,50.73c-.8-1.83-1.39-2.2-3.41-2.09-.4.02-.81.07-1.2.13-5.26.89-9.99,3.22-14.73,5.49-2.58,1.23-5.11,2.54-7.97,3.24.62,2.09.67,2.04,2.46,1.26,1.14-.5,2.22-1.11,3.35-1.62,3.66-1.67,7.3-3.37,11-4.93,1.13-.48,2.45-.55,3.69-.73.24-.03.61.24.76.48.07.11-.18.55-.39.69-1.24.85-2.47,1.73-3.78,2.47-3.53,1.97-7.14,3.79-10.64,5.82-1.4.81-2.7,1.89-3.81,3.07-1.17,1.25-.59,2.58,1.12,2.68,1.17.07,2.38-.04,3.52-.31,4.55-1.06,8.79-2.94,12.94-5.05,2.96-1.5,5.89-3.09,9.13-3.92.67-.17.71-.46.45-1.03-.85-1.87-1.66-3.76-2.48-5.64Z"/>
            <path class="cls-4" d="M156.29,12.2c-.09-.21-.63-.44-.8-.36-1.37.74-2.7,1.54-4.02,2.35-.49.3-.5.75-.26,1.27.61,1.32,1.18,2.67,1.76,4,.6,1.36,1.18,2.73,1.81,4.07.09.2.5.46.61.4,1.41-.77,2.82-1.56,4.18-2.43.25-.16.45-.8.34-1.08-1.15-2.76-2.37-5.5-3.61-8.23Z"/>
            <path class="cls-4" d="M153.18,12.68c.69-.65,1.4-1.19,1.94-1.86.51-.64.29-1.07-.48-1.33-1.87-.64-3.86.23-4.67,2.05-.3.66-.1,1.18.62,1.25.83.08,1.68-.05,2.6-.1Z"/>
            <path class="cls-4" d="M141.47,19.36c-.33-.79-.83-1.05-1.57-.84-1.32.38-2.61.84-3.92,1.24-.68.21-.69.56-.42,1.15,1.58,3.53,3.09,7.08,4.68,10.6.56,1.24.42,2.36-.43,3.31-.7.79-1.6,1.41-2.62,2.28,1.32-.41,2.49-.69,3.6-1.14,1.88-.77,3.66-1.75,4.88-3.47.64-.9.78-1.82.29-2.89-1.54-3.4-3.03-6.81-4.49-10.24Z"/>
            <path class="cls-2" d="M167.52,15.7c-1.84-8.26-8.9-11.88-15.78-10.37-.65.14-1.3.36-1.91.63-6.54,2.86-13.07,5.73-19.6,8.59-.28.12-.6.14-.91.21C96.94,28.98,31.71,57.8,31.43,57.93c-6.31,2.78-12.62,5.55-18.93,8.32-4.47,1.96-7.68,6.85-7.49,11.73.39,10.1,9.81,15.77,18.54,11.93,45.48-19.97,90.96-39.93,136.44-59.9,5.57-2.45,8.83-8.51,7.54-14.31ZM45.3,72.12c-2.8,1.19-5.67.8-8.54.37-4.49-.68-8.88-.19-13.16,1.28-1.34.46-2.69.92-4.12,1.41,1.06,2.41,2.06,4.7,3.17,7.21-1.85.54-3.59,1.06-5.35,1.53-.55.15-.94-.13-1.19-.7-1.82-4.22-3.66-8.43-5.55-12.62-.34-.76-.09-1.05.57-1.34,5.41-2.34,10.78-4.76,16.21-7.03,3.12-1.31,6.29-2.55,9.67-3.07.85-.13,1.72-.21,2.57-.14,2.27.19,3.31,2.35,1.84,4.07-1.16,1.35-2.58,2.54-4.06,3.52-1.99,1.32-4.16,2.37-6.39,3.61,6.15-1.88,12.19-.98,18.28.16-1.34.59-2.64,1.18-3.96,1.74ZM79,57.4c-3.24.83-6.17,2.42-9.13,3.92-4.15,2.11-8.39,3.99-12.94,5.05-1.14.27-2.36.38-3.52.31-1.71-.11-2.29-1.43-1.12-2.68,1.11-1.18,2.41-2.26,3.81-3.07,3.49-2.03,7.11-3.86,10.64-5.82,1.31-.73,2.54-1.61,3.78-2.47.21-.14.46-.58.39-.69-.15-.23-.52-.51-.76-.48-1.24.18-2.56.25-3.69.73-3.7,1.56-7.34,3.26-11,4.93-1.13.51-2.21,1.12-3.35,1.62-1.79.78-1.84.83-2.46-1.26,2.86-.7,5.39-2,7.97-3.24,4.74-2.27,9.47-4.59,14.73-5.49.4-.07.8-.11,1.2-.13,2.02-.1,2.61.26,3.41,2.09.82,1.88,1.63,3.77,2.48,5.64.26.57.22.86-.45,1.03ZM83.48,40.06c.73-1.79,2.98-2.75,4.78-2.03.64.25.85.69.4,1.26-.53.68-1.22,1.22-1.89,1.87-.93.07-1.78.22-2.61.16-.78-.06-.98-.54-.69-1.26ZM94.21,55.35c-1.53,1.74-3.51,2.74-5.66,3.46-.75.25-1.53.42-2.3.63,0-.04,0-.08,0-.12.72-.56,1.5-1.05,2.13-1.69,1.05-1.07,1.34-2.32.67-3.78-1.58-3.49-3.08-7.02-4.65-10.52-.28-.62-.18-.93.46-1.13,1.29-.39,2.56-.84,3.85-1.21.77-.22,1.28.03,1.63.86,1.42,3.36,2.87,6.7,4.39,10.01.62,1.35.38,2.45-.54,3.5ZM125.86,36.43c-2.91,1.36-5.74,2.87-8.64,4.24-3.47,1.64-7.03,3.06-10.82,3.78-.32.06-.64.09-.96.11-2.25.17-2.7-.1-3.59-2.13-.84-1.9-1.66-3.81-2.52-5.71-.24-.53-.22-.86.39-1.04,1.36-.42,2.71-.89,4.07-1.29.66-.19,1.08.06,1.36.76.71,1.75,1.5,3.47,2.26,5.2.44,1.01.88,1.35,2,1.2,1.12-.15,2.24-.38,3.3-.75,4.06-1.41,7.9-3.32,11.75-5.47-.13-.29-.24-.55-.35-.81-.99-2.25-1.98-4.5-2.96-6.75-.55-1.25-.57-1.31.75-1.79,1.23-.45,2.51-.79,3.79-1.08.28-.06.83.22.95.49,1.38,3.02,2.69,6.06,4.05,9.15-1.68.65-3.3,1.18-4.83,1.9ZM134.52,17.56c.93-1.78,2.59-2.52,4.49-1.99.91.25,1.14.71.57,1.45-.5.64-1.18,1.13-1.84,1.73-.89.07-1.74.22-2.58.17-.77-.05-1-.67-.64-1.37ZM145.67,32.48c-1.22,1.72-3,2.69-4.88,3.47-1.1.45-2.28.73-3.6,1.14,1.02-.87,1.92-1.49,2.62-2.28.85-.95.99-2.08.43-3.31-1.59-3.52-3.11-7.07-4.68-10.6-.26-.59-.25-.94.42-1.15,1.31-.4,2.61-.87,3.92-1.24.74-.21,1.23.05,1.57.84,1.46,3.43,2.95,6.84,4.49,10.24.48,1.07.35,1.99-.29,2.89ZM149.96,11.53c.81-1.81,2.8-2.68,4.67-2.05.77.26.99.7.48,1.33-.54.68-1.25,1.21-1.94,1.86-.91.04-1.76.17-2.6.1-.72-.07-.91-.59-.62-1.25ZM159.56,21.5c-1.35.87-2.76,1.66-4.18,2.43-.1.06-.52-.21-.61-.4-.63-1.34-1.21-2.71-1.81-4.07-.58-1.34-1.15-2.68-1.76-4-.24-.52-.23-.97.26-1.27,1.32-.81,2.66-1.61,4.02-2.35.16-.09.7.15.8.36,1.24,2.73,2.45,5.47,3.61,8.23.12.28-.09.91-.34,1.08Z"/>
          </g>
          <path class="cls-2" d="M18.88,73.71l-2.17-4.95c.48-.24.94-.51,1.42-.72,3.37-1.46,6.72-2.98,10.13-4.35,1.64-.66,3.39-1.03,5.1-1.5.41-.11.86-.1,1.28-.06,1.45.12,2.14,1.46,1.22,2.6-.7.86-1.58,1.65-2.53,2.21-1.73,1.03-3.56,1.92-5.39,2.77-2.72,1.26-5.49,2.42-8.23,3.63-.26.12-.53.23-.83.37Z"/>
          <path class="cls-2" d="M72.05,53.86c.46,1.05.91,2.15,1.43,3.22.25.53-.08.68-.42.85-2.8,1.4-5.56,2.86-8.41,4.15-1.54.7-3.19,1.14-4.81,1.63-.53.16-1.12.19-1.68.15-.92-.07-1.21-.72-.58-1.37.65-.67,1.39-1.3,2.2-1.75,3.06-1.71,6.17-3.32,9.24-5.01,1.01-.55,1.96-1.21,3.03-1.87Z"/>
        </g>
      </g>
    </pattern>
  </defs>
  <rect class="cls-1" width="1921.02" height="1080"/>
</svg>