<svg id="visual" viewBox="0 0 960 540" width="960" height="540" xmlns="http://www.w3.org/2000/svg" xmlns:xlink="http://www.w3.org/1999/xlink" version="1.1"><rect x="0" y="0" width="960" height="540" fill="#FFFFFF"></rect><defs><linearGradient id="grad1_0" x1="43.8%" y1="0%" x2="100%" y2="100%"><stop offset="14.444444444444446%" stop-color="#f7770f" stop-opacity="1"></stop><stop offset="85.55555555555554%" stop-color="#f7770f" stop-opacity="1"></stop></linearGradient></defs><defs><linearGradient id="grad1_1" x1="43.8%" y1="0%" x2="100%" y2="100%"><stop offset="14.444444444444446%" stop-color="#f7770f" stop-opacity="1"></stop><stop offset="85.55555555555554%" stop-color="#ff9a54" stop-opacity="1"></stop></linearGradient></defs><defs><linearGradient id="grad1_2" x1="43.8%" y1="0%" x2="100%" y2="100%"><stop offset="14.444444444444446%" stop-color="#ffbb8c" stop-opacity="1"></stop><stop offset="85.55555555555554%" stop-color="#ff9a54" stop-opacity="1"></stop></linearGradient></defs><defs><linearGradient id="grad1_3" x1="43.8%" y1="0%" x2="100%" y2="100%"><stop offset="14.444444444444446%" stop-color="#ffbb8c" stop-opacity="1"></stop><stop offset="85.55555555555554%" stop-color="#ffddc5" stop-opacity="1"></stop></linearGradient></defs><defs><linearGradient id="grad1_4" x1="43.8%" y1="0%" x2="100%" y2="100%"><stop offset="14.444444444444446%" stop-color="#ffffff" stop-opacity="1"></stop><stop offset="85.55555555555554%" stop-color="#ffddc5" stop-opacity="1"></stop></linearGradient></defs><defs><linearGradient id="grad2_0" x1="0%" y1="0%" x2="56.3%" y2="100%"><stop offset="14.444444444444446%" stop-color="#f7770f" stop-opacity="1"></stop><stop offset="85.55555555555554%" stop-color="#f7770f" stop-opacity="1"></stop></linearGradient></defs><defs><linearGradient id="grad2_1" x1="0%" y1="0%" x2="56.3%" y2="100%"><stop offset="14.444444444444446%" stop-color="#ff9a54" stop-opacity="1"></stop><stop offset="85.55555555555554%" stop-color="#f7770f" stop-opacity="1"></stop></linearGradient></defs><defs><linearGradient id="grad2_2" x1="0%" y1="0%" x2="56.3%" y2="100%"><stop offset="14.444444444444446%" stop-color="#ff9a54" stop-opacity="1"></stop><stop offset="85.55555555555554%" stop-color="#ffbb8c" stop-opacity="1"></stop></linearGradient></defs><defs><linearGradient id="grad2_3" x1="0%" y1="0%" x2="56.3%" y2="100%"><stop offset="14.444444444444446%" stop-color="#ffddc5" stop-opacity="1"></stop><stop offset="85.55555555555554%" stop-color="#ffbb8c" stop-opacity="1"></stop></linearGradient></defs><defs><linearGradient id="grad2_4" x1="0%" y1="0%" x2="56.3%" y2="100%"><stop offset="14.444444444444446%" stop-color="#ffddc5" stop-opacity="1"></stop><stop offset="85.55555555555554%" stop-color="#ffffff" stop-opacity="1"></stop></linearGradient></defs><g transform="translate(960, 0)"><path d="M0 540C-29 462.9 -58.1 385.8 -99.9 372.8C-141.7 359.9 -196.3 411.2 -243 420.9C-289.7 430.5 -328.4 398.5 -368.4 368.4C-408.4 338.3 -449.6 310.1 -467.7 270C-485.7 229.9 -480.6 177.9 -488.8 131C-497 84 -518.5 42 -540 0L0 0Z" fill="#ffeee2"></path><path d="M0 432C-23.2 370.3 -46.5 308.6 -79.9 298.3C-113.4 288 -157.1 329 -194.4 336.7C-231.7 344.4 -262.7 318.8 -294.7 294.7C-326.7 270.6 -359.7 248.1 -374.1 216C-388.6 183.9 -384.5 142.4 -391 104.8C-397.6 67.2 -414.8 33.6 -432 0L0 0Z" fill="#ffcca8"></path><path d="M0 324C-17.4 277.7 -34.8 231.5 -59.9 223.7C-85 216 -117.8 246.7 -145.8 252.5C-173.8 258.3 -197.1 239.1 -221 221C-245 203 -269.8 186.1 -280.6 162C-291.4 137.9 -288.3 106.8 -293.3 78.6C-298.2 50.4 -311.1 25.2 -324 0L0 0Z" fill="#ffaa70"></path><path d="M0 216C-11.6 185.2 -23.2 154.3 -40 149.1C-56.7 144 -78.5 164.5 -97.2 168.4C-115.9 172.2 -131.4 159.4 -147.4 147.4C-163.4 135.3 -179.8 124 -187.1 108C-194.3 92 -192.2 71.2 -195.5 52.4C-198.8 33.6 -207.4 16.8 -216 0L0 0Z" fill="#fd8837"></path><path d="M0 108C-5.8 92.6 -11.6 77.2 -20 74.6C-28.3 72 -39.3 82.2 -48.6 84.2C-57.9 86.1 -65.7 79.7 -73.7 73.7C-81.7 67.7 -89.9 62 -93.5 54C-97.1 46 -96.1 35.6 -97.8 26.2C-99.4 16.8 -103.7 8.4 -108 0L0 0Z" fill="#f7770f"></path></g><g transform="translate(0, 540)"><path d="M0 -540C41.4 -520.5 82.9 -501 132.8 -495.5C182.7 -490.1 241.1 -498.7 270 -467.7C298.9 -436.6 298.2 -365.7 326 -326C353.7 -286.2 409.9 -277.5 426.1 -246C442.3 -214.5 418.5 -160.2 430.8 -115.4C443.1 -70.6 491.6 -35.3 540 0L0 0Z" fill="#ffeee2"></path><path d="M0 -432C33.1 -416.4 66.3 -400.8 106.2 -396.4C146.2 -392.1 192.9 -399 216 -374.1C239.1 -349.3 238.6 -292.6 260.8 -260.8C283 -229 327.9 -222 340.9 -196.8C353.8 -171.6 334.8 -128.2 344.6 -92.3C354.5 -56.5 393.3 -28.3 432 0L0 0Z" fill="#ffcca8"></path><path d="M0 -324C24.9 -312.3 49.7 -300.6 79.7 -297.3C109.6 -294.1 144.7 -299.2 162 -280.6C179.3 -261.9 178.9 -219.4 195.6 -195.6C212.2 -171.7 245.9 -166.5 255.7 -147.6C265.4 -128.7 251.1 -96.1 258.5 -69.3C265.9 -42.4 294.9 -21.2 324 0L0 0Z" fill="#ffaa70"></path><path d="M0 -216C16.6 -208.2 33.1 -200.4 53.1 -198.2C73.1 -196 96.4 -199.5 108 -187.1C119.6 -174.6 119.3 -146.3 130.4 -130.4C141.5 -114.5 164 -111 170.4 -98.4C176.9 -85.8 167.4 -64.1 172.3 -46.2C177.3 -28.3 196.6 -14.1 216 0L0 0Z" fill="#fd8837"></path><path d="M0 -108C8.3 -104.1 16.6 -100.2 26.6 -99.1C36.5 -98 48.2 -99.7 54 -93.5C59.8 -87.3 59.6 -73.1 65.2 -65.2C70.7 -57.2 82 -55.5 85.2 -49.2C88.5 -42.9 83.7 -32 86.2 -23.1C88.6 -14.1 98.3 -7.1 108 0L0 0Z" fill="#f7770f"></path></g></svg>