<svg id="visual" viewBox="0 0 900 600" width="900" height="600" xmlns="http://www.w3.org/2000/svg" xmlns:xlink="http://www.w3.org/1999/xlink" version="1.1"><path d="M0 184L11.5 186.3C23 188.7 46 193.3 69 190.5C92 187.7 115 177.3 138.2 177.2C161.3 177 184.7 187 207.8 187C231 187 254 177 277 174.2C300 171.3 323 175.7 346 181.5C369 187.3 392 194.7 415.2 193.3C438.3 192 461.7 182 484.8 181.7C508 181.3 531 190.7 554 189.2C577 187.7 600 175.3 623 169.5C646 163.7 669 164.3 692.2 167.7C715.3 171 738.7 177 761.8 179.3C785 181.7 808 180.3 831 181.5C854 182.7 877 186.3 888.5 188.2L900 190L900 601L888.5 601C877 601 854 601 831 601C808 601 785 601 761.8 601C738.7 601 715.3 601 692.2 601C669 601 646 601 623 601C600 601 577 601 554 601C531 601 508 601 484.8 601C461.7 601 438.3 601 415.2 601C392 601 369 601 346 601C323 601 300 601 277 601C254 601 231 601 207.8 601C184.7 601 161.3 601 138.2 601C115 601 92 601 69 601C46 601 23 601 11.5 601L0 601Z" fill="#862323"></path><path d="M0 266L11.5 266.5C23 267 46 268 69 266.5C92 265 115 261 138.2 259.7C161.3 258.3 184.7 259.7 207.8 263.3C231 267 254 273 277 277C300 281 323 283 346 279.2C369 275.3 392 265.7 415.2 265.2C438.3 264.7 461.7 273.3 484.8 271.8C508 270.3 531 258.7 554 259.8C577 261 600 275 623 279.7C646 284.3 669 279.7 692.2 276.5C715.3 273.3 738.7 271.7 761.8 269.5C785 267.3 808 264.7 831 267.7C854 270.7 877 279.3 888.5 283.7L900 288L900 601L888.5 601C877 601 854 601 831 601C808 601 785 601 761.8 601C738.7 601 715.3 601 692.2 601C669 601 646 601 623 601C600 601 577 601 554 601C531 601 508 601 484.8 601C461.7 601 438.3 601 415.2 601C392 601 369 601 346 601C323 601 300 601 277 601C254 601 231 601 207.8 601C184.7 601 161.3 601 138.2 601C115 601 92 601 69 601C46 601 23 601 11.5 601L0 601Z" fill="#742021"></path><path d="M0 350L11.5 348.7C23 347.3 46 344.7 69 344.3C92 344 115 346 138.2 350C161.3 354 184.7 360 207.8 360.7C231 361.3 254 356.7 277 351.3C300 346 323 340 346 337.7C369 335.3 392 336.7 415.2 340C438.3 343.3 461.7 348.7 484.8 349C508 349.3 531 344.7 554 340.2C577 335.7 600 331.3 623 329.8C646 328.3 669 329.7 692.2 332.8C715.3 336 738.7 341 761.8 343.8C785 346.7 808 347.3 831 349.7C854 352 877 356 888.5 358L900 360L900 601L888.5 601C877 601 854 601 831 601C808 601 785 601 761.8 601C738.7 601 715.3 601 692.2 601C669 601 646 601 623 601C600 601 577 601 554 601C531 601 508 601 484.8 601C461.7 601 438.3 601 415.2 601C392 601 369 601 346 601C323 601 300 601 277 601C254 601 231 601 207.8 601C184.7 601 161.3 601 138.2 601C115 601 92 601 69 601C46 601 23 601 11.5 601L0 601Z" fill="#631d1e"></path><path d="M0 435L11.5 432.5C23 430 46 425 69 426C92 427 115 434 138.2 436.7C161.3 439.3 184.7 437.7 207.8 438.5C231 439.3 254 442.7 277 443C300 443.3 323 440.7 346 437.2C369 433.7 392 429.3 415.2 430.5C438.3 431.7 461.7 438.3 484.8 436C508 433.7 531 422.3 554 417.2C577 412 600 413 623 413C646 413 669 412 692.2 411.2C715.3 410.3 738.7 409.7 761.8 414.8C785 420 808 431 831 431.5C854 432 877 422 888.5 417L900 412L900 601L888.5 601C877 601 854 601 831 601C808 601 785 601 761.8 601C738.7 601 715.3 601 692.2 601C669 601 646 601 623 601C600 601 577 601 554 601C531 601 508 601 484.8 601C461.7 601 438.3 601 415.2 601C392 601 369 601 346 601C323 601 300 601 277 601C254 601 231 601 207.8 601C184.7 601 161.3 601 138.2 601C115 601 92 601 69 601C46 601 23 601 11.5 601L0 601Z" fill="#521a1b"></path><path d="M0 509L11.5 507.5C23 506 46 503 69 503.8C92 504.7 115 509.3 138.2 511.2C161.3 513 184.7 512 207.8 509.7C231 507.3 254 503.7 277 506.3C300 509 323 518 346 518.5C369 519 392 511 415.2 507.2C438.3 503.3 461.7 503.7 484.8 505.8C508 508 531 512 554 513.8C577 515.7 600 515.3 623 512.5C646 509.7 669 504.3 692.2 503C715.3 501.7 738.7 504.3 761.8 507.5C785 510.7 808 514.3 831 517.5C854 520.7 877 523.3 888.5 524.7L900 526L900 601L888.5 601C877 601 854 601 831 601C808 601 785 601 761.8 601C738.7 601 715.3 601 692.2 601C669 601 646 601 623 601C600 601 577 601 554 601C531 601 508 601 484.8 601C461.7 601 438.3 601 415.2 601C392 601 369 601 346 601C323 601 300 601 277 601C254 601 231 601 207.8 601C184.7 601 161.3 601 138.2 601C115 601 92 601 69 601C46 601 23 601 11.5 601L0 601Z" fill="#421717"></path></svg>