<svg id="visual" viewBox="0 0 960 540" width="960" height="540" xmlns="http://www.w3.org/2000/svg" xmlns:xlink="http://www.w3.org/1999/xlink" version="1.1"><path d="M0 214L22.8 217.7C45.7 221.3 91.3 228.7 137 227.2C182.7 225.7 228.3 215.3 274 222.8C319.7 230.3 365.3 255.7 411.2 261.3C457 267 503 253 548.8 242.5C594.7 232 640.3 225 686 229.8C731.7 234.7 777.3 251.3 823 252.7C868.7 254 914.3 240 937.2 233L960 226L960 541L937.2 541C914.3 541 868.7 541 823 541C777.3 541 731.7 541 686 541C640.3 541 594.7 541 548.8 541C503 541 457 541 411.2 541C365.3 541 319.7 541 274 541C228.3 541 182.7 541 137 541C91.3 541 45.7 541 22.8 541L0 541Z" fill="#fcaf3c"></path><path d="M0 287L22.8 286.7C45.7 286.3 91.3 285.7 137 284.3C182.7 283 228.3 281 274 289.8C319.7 298.7 365.3 318.3 411.2 325.8C457 333.3 503 328.7 548.8 318.7C594.7 308.7 640.3 293.3 686 285.8C731.7 278.3 777.3 278.7 823 288.5C868.7 298.3 914.3 317.7 937.2 327.3L960 337L960 541L937.2 541C914.3 541 868.7 541 823 541C777.3 541 731.7 541 686 541C640.3 541 594.7 541 548.8 541C503 541 457 541 411.2 541C365.3 541 319.7 541 274 541C228.3 541 182.7 541 137 541C91.3 541 45.7 541 22.8 541L0 541Z" fill="#fb9d2c"></path><path d="M0 371L22.8 371.3C45.7 371.7 91.3 372.3 137 379.3C182.7 386.3 228.3 399.7 274 397.7C319.7 395.7 365.3 378.3 411.2 373.7C457 369 503 377 548.8 381.5C594.7 386 640.3 387 686 388.3C731.7 389.7 777.3 391.3 823 390C868.7 388.7 914.3 384.3 937.2 382.2L960 380L960 541L937.2 541C914.3 541 868.7 541 823 541C777.3 541 731.7 541 686 541C640.3 541 594.7 541 548.8 541C503 541 457 541 411.2 541C365.3 541 319.7 541 274 541C228.3 541 182.7 541 137 541C91.3 541 45.7 541 22.8 541L0 541Z" fill="#f98b1d"></path><path d="M0 467L22.8 468C45.7 469 91.3 471 137 465.2C182.7 459.3 228.3 445.7 274 440.8C319.7 436 365.3 440 411.2 446.3C457 452.7 503 461.3 548.8 460.2C594.7 459 640.3 448 686 447.7C731.7 447.3 777.3 457.7 823 460.3C868.7 463 914.3 458 937.2 455.5L960 453L960 541L937.2 541C914.3 541 868.7 541 823 541C777.3 541 731.7 541 686 541C640.3 541 594.7 541 548.8 541C503 541 457 541 411.2 541C365.3 541 319.7 541 274 541C228.3 541 182.7 541 137 541C91.3 541 45.7 541 22.8 541L0 541Z" fill="#f7770f"></path></svg>