<svg id="visual" viewBox="0 0 960 540" width="960" height="540" xmlns="http://www.w3.org/2000/svg" xmlns:xlink="http://www.w3.org/1999/xlink" version="1.1"><g stroke-width="1" stroke-linejoin="bevel"><path d="M481 277L437 307L489 318Z" fill="#25166a" stroke="#25166a"></path><path d="M481 277L427 261L437 307Z" fill="#1a0d56" stroke="#1a0d56"></path><path d="M489 318L529 269L481 277Z" fill="#120a49" stroke="#120a49"></path><path d="M437 307L484 368L489 318Z" fill="#1a0d56" stroke="#1a0d56"></path><path d="M489 318L522 360L530 324Z" fill="#110a45" stroke="#110a45"></path><path d="M530 324L529 269L489 318Z" fill="#0f0a3a" stroke="#0f0a3a"></path><path d="M481 277L480 228L427 261Z" fill="#301f7e" stroke="#301f7e"></path><path d="M529 269L480 228L481 277Z" fill="#2a1a74" stroke="#2a1a74"></path><path d="M391 323L428 369L437 307Z" fill="#25166a" stroke="#25166a"></path><path d="M437 307L428 369L484 368Z" fill="#0f0a3a" stroke="#0f0a3a"></path><path d="M393 260L391 323L437 307Z" fill="#301f7e" stroke="#301f7e"></path><path d="M484 368L522 360L489 318Z" fill="#100a42" stroke="#100a42"></path><path d="M422 217L393 260L427 261Z" fill="#110a45" stroke="#110a45"></path><path d="M427 261L393 260L437 307Z" fill="#100a42" stroke="#100a42"></path><path d="M480 228L422 217L427 261Z" fill="#120a49" stroke="#120a49"></path><path d="M339 359L389 362L391 323Z" fill="#25166a" stroke="#25166a"></path><path d="M391 323L389 362L428 369Z" fill="#0f0a3e" stroke="#0f0a3e"></path><path d="M584 369L567 306L530 324Z" fill="#14094d" stroke="#14094d"></path><path d="M530 324L567 306L529 269Z" fill="#120a49" stroke="#120a49"></path><path d="M567 306L569 274L529 269Z" fill="#100a42" stroke="#100a42"></path><path d="M529 269L536 219L480 228Z" fill="#0f0a3e" stroke="#0f0a3e"></path><path d="M425 404L476 408L428 369Z" fill="#1f1260" stroke="#1f1260"></path><path d="M428 369L476 408L484 368Z" fill="#25166a" stroke="#25166a"></path><path d="M484 368L528 400L522 360Z" fill="#301f7e" stroke="#301f7e"></path><path d="M574 232L536 219L529 269Z" fill="#120a49" stroke="#120a49"></path><path d="M480 228L433 176L422 217Z" fill="#110a45" stroke="#110a45"></path><path d="M422 217L382 230L393 260Z" fill="#110a45" stroke="#110a45"></path><path d="M328 279L335 318L391 323Z" fill="#0f0a3e" stroke="#0f0a3e"></path><path d="M389 362L425 404L428 369Z" fill="#2a1a74" stroke="#2a1a74"></path><path d="M476 408L528 400L484 368Z" fill="#120a49" stroke="#120a49"></path><path d="M522 360L584 369L530 324Z" fill="#0f0a3a" stroke="#0f0a3a"></path><path d="M536 219L489 186L480 228Z" fill="#110a45" stroke="#110a45"></path><path d="M422 217L376 175L382 230Z" fill="#120a49" stroke="#120a49"></path><path d="M569 274L574 232L529 269Z" fill="#110a45" stroke="#110a45"></path><path d="M536 219L537 186L489 186Z" fill="#100a42" stroke="#100a42"></path><path d="M626 274L574 232L569 274Z" fill="#0f0a3a" stroke="#0f0a3a"></path><path d="M489 186L433 176L480 228Z" fill="#25166a" stroke="#25166a"></path><path d="M328 279L391 323L393 260Z" fill="#100a42" stroke="#100a42"></path><path d="M389 362L388 409L425 404Z" fill="#1f1260" stroke="#1f1260"></path><path d="M339 359L388 409L389 362Z" fill="#1f1260" stroke="#1f1260"></path><path d="M425 404L436 444L476 408Z" fill="#100a42" stroke="#100a42"></path><path d="M567 175L537 186L536 219Z" fill="#14094d" stroke="#14094d"></path><path d="M489 186L470 132L433 176Z" fill="#100a42" stroke="#100a42"></path><path d="M528 400L584 369L522 360Z" fill="#0f0a3e" stroke="#0f0a3e"></path><path d="M567 306L614 313L569 274Z" fill="#1a0d56" stroke="#1a0d56"></path><path d="M335 318L339 359L391 323Z" fill="#25166a" stroke="#25166a"></path><path d="M338 215L328 279L382 230Z" fill="#120a49" stroke="#120a49"></path><path d="M382 230L328 279L393 260Z" fill="#110a45" stroke="#110a45"></path><path d="M291 405L338 413L339 359Z" fill="#0f0a3a" stroke="#0f0a3a"></path><path d="M386 446L436 444L425 404Z" fill="#25166a" stroke="#25166a"></path><path d="M476 408L523 442L528 400Z" fill="#25166a" stroke="#25166a"></path><path d="M616 350L614 313L567 306Z" fill="#14094d" stroke="#14094d"></path><path d="M475 454L523 442L476 408Z" fill="#25166a" stroke="#25166a"></path><path d="M528 400L581 413L584 369Z" fill="#14094d" stroke="#14094d"></path><path d="M436 444L475 454L476 408Z" fill="#1f1260" stroke="#1f1260"></path><path d="M376 175L338 215L382 230Z" fill="#1f1260" stroke="#1f1260"></path><path d="M433 176L376 175L422 217Z" fill="#301f7e" stroke="#301f7e"></path><path d="M627 397L616 350L584 369Z" fill="#14094d" stroke="#14094d"></path><path d="M584 369L616 350L567 306Z" fill="#2a1a74" stroke="#2a1a74"></path><path d="M574 446L581 413L528 400Z" fill="#120a49" stroke="#120a49"></path><path d="M620 216L567 175L574 232Z" fill="#0f0a3a" stroke="#0f0a3a"></path><path d="M574 232L567 175L536 219Z" fill="#301f7e" stroke="#301f7e"></path><path d="M537 135L470 132L489 186Z" fill="#14094d" stroke="#14094d"></path><path d="M433 176L378 144L376 175Z" fill="#2a1a74" stroke="#2a1a74"></path><path d="M664 308L626 274L614 313Z" fill="#120a49" stroke="#120a49"></path><path d="M614 313L626 274L569 274Z" fill="#1a0d56" stroke="#1a0d56"></path><path d="M338 413L386 446L388 409Z" fill="#301f7e" stroke="#301f7e"></path><path d="M388 409L386 446L425 404Z" fill="#100a42" stroke="#100a42"></path><path d="M437 490L486 489L475 454Z" fill="#1a0d56" stroke="#1a0d56"></path><path d="M287 355L339 359L335 318Z" fill="#110a45" stroke="#110a45"></path><path d="M339 359L338 413L388 409Z" fill="#301f7e" stroke="#301f7e"></path><path d="M537 135L489 186L537 186Z" fill="#1a0d56" stroke="#1a0d56"></path><path d="M292 222L292 279L328 279Z" fill="#0f0a3a" stroke="#0f0a3a"></path><path d="M328 279L292 279L335 318Z" fill="#1a0d56" stroke="#1a0d56"></path><path d="M626 274L620 216L574 232Z" fill="#1a0d56" stroke="#1a0d56"></path><path d="M427 125L378 144L433 176Z" fill="#1f1260" stroke="#1f1260"></path><path d="M376 175L335 173L338 215Z" fill="#100a42" stroke="#100a42"></path><path d="M338 215L292 222L328 279Z" fill="#1f1260" stroke="#1f1260"></path><path d="M470 132L427 125L433 176Z" fill="#100a42" stroke="#100a42"></path><path d="M523 442L574 446L528 400Z" fill="#100a42" stroke="#100a42"></path><path d="M581 413L627 397L584 369Z" fill="#110a45" stroke="#110a45"></path><path d="M521 499L574 446L523 442Z" fill="#120a49" stroke="#120a49"></path><path d="M569 127L537 135L567 175Z" fill="#120a49" stroke="#120a49"></path><path d="M567 175L537 135L537 186Z" fill="#100a42" stroke="#100a42"></path><path d="M470 132L425 84L427 125Z" fill="#1a0d56" stroke="#1a0d56"></path><path d="M339 139L335 173L376 175Z" fill="#120a49" stroke="#120a49"></path><path d="M292 279L280 316L335 318Z" fill="#110a45" stroke="#110a45"></path><path d="M280 316L287 355L335 318Z" fill="#0f0a3e" stroke="#0f0a3e"></path><path d="M627 444L627 397L581 413Z" fill="#0f0a3e" stroke="#0f0a3e"></path><path d="M616 350L664 308L614 313Z" fill="#25166a" stroke="#25166a"></path><path d="M437 490L475 454L436 444Z" fill="#100a42" stroke="#100a42"></path><path d="M475 454L486 489L523 442Z" fill="#25166a" stroke="#25166a"></path><path d="M294 179L292 222L338 215Z" fill="#14094d" stroke="#14094d"></path><path d="M292 279L247 276L280 316Z" fill="#1a0d56" stroke="#1a0d56"></path><path d="M384 496L437 490L386 446Z" fill="#2a1a74" stroke="#2a1a74"></path><path d="M386 446L437 490L436 444Z" fill="#0f0a3a" stroke="#0f0a3a"></path><path d="M620 216L616 180L567 175Z" fill="#301f7e" stroke="#301f7e"></path><path d="M677 353L664 308L616 350Z" fill="#1f1260" stroke="#1f1260"></path><path d="M626 274L665 215L620 216Z" fill="#1f1260" stroke="#1f1260"></path><path d="M620 216L665 215L616 180Z" fill="#2a1a74" stroke="#2a1a74"></path><path d="M621 143L569 127L567 175Z" fill="#120a49" stroke="#120a49"></path><path d="M537 135L488 89L470 132Z" fill="#0f0a3a" stroke="#0f0a3a"></path><path d="M287 355L291 405L339 359Z" fill="#0f0a3a" stroke="#0f0a3a"></path><path d="M338 413L332 459L386 446Z" fill="#1f1260" stroke="#1f1260"></path><path d="M243 351L291 405L287 355Z" fill="#100a42" stroke="#100a42"></path><path d="M473 540L521 499L486 489Z" fill="#100a42" stroke="#100a42"></path><path d="M486 489L521 499L523 442Z" fill="#25166a" stroke="#25166a"></path><path d="M574 446L627 444L581 413Z" fill="#1a0d56" stroke="#1a0d56"></path><path d="M378 144L339 139L376 175Z" fill="#0f0a3a" stroke="#0f0a3a"></path><path d="M335 173L294 179L338 215Z" fill="#120a49" stroke="#120a49"></path><path d="M375 91L339 139L378 144Z" fill="#100a42" stroke="#100a42"></path><path d="M291 405L332 459L338 413Z" fill="#1f1260" stroke="#1f1260"></path><path d="M288 143L294 179L335 173Z" fill="#110a45" stroke="#110a45"></path><path d="M292 222L247 276L292 279Z" fill="#301f7e" stroke="#301f7e"></path><path d="M332 459L384 496L386 446Z" fill="#2a1a74" stroke="#2a1a74"></path><path d="M437 490L473 540L486 489Z" fill="#1a0d56" stroke="#1a0d56"></path><path d="M664 308L674 261L626 274Z" fill="#100a42" stroke="#100a42"></path><path d="M525 84L488 89L537 135Z" fill="#110a45" stroke="#110a45"></path><path d="M427 125L375 91L378 144Z" fill="#0f0a3a" stroke="#0f0a3a"></path><path d="M577 497L627 444L574 446Z" fill="#120a49" stroke="#120a49"></path><path d="M627 397L677 353L616 350Z" fill="#0f0a3a" stroke="#0f0a3a"></path><path d="M674 261L665 215L626 274Z" fill="#120a49" stroke="#120a49"></path><path d="M616 180L621 143L567 175Z" fill="#1a0d56" stroke="#1a0d56"></path><path d="M671 412L677 353L627 397Z" fill="#301f7e" stroke="#301f7e"></path><path d="M664 308L713 277L674 261Z" fill="#25166a" stroke="#25166a"></path><path d="M245 222L247 276L292 222Z" fill="#1f1260" stroke="#1f1260"></path><path d="M280 316L243 351L287 355Z" fill="#14094d" stroke="#14094d"></path><path d="M488 89L425 84L470 132Z" fill="#1a0d56" stroke="#1a0d56"></path><path d="M666 144L621 143L616 180Z" fill="#25166a" stroke="#25166a"></path><path d="M569 127L525 84L537 135Z" fill="#110a45" stroke="#110a45"></path><path d="M247 276L242 314L280 316Z" fill="#301f7e" stroke="#301f7e"></path><path d="M521 499L577 497L574 446Z" fill="#0f0a3a" stroke="#0f0a3a"></path><path d="M580 92L525 84L569 127Z" fill="#1f1260" stroke="#1f1260"></path><path d="M485 49L422 53L425 84Z" fill="#120a49" stroke="#120a49"></path><path d="M242 314L243 351L280 316Z" fill="#110a45" stroke="#110a45"></path><path d="M282 453L328 485L332 459Z" fill="#14094d" stroke="#14094d"></path><path d="M425 84L375 91L427 125Z" fill="#0f0a3a" stroke="#0f0a3a"></path><path d="M339 139L288 143L335 173Z" fill="#110a45" stroke="#110a45"></path><path d="M282 453L332 459L291 405Z" fill="#1a0d56" stroke="#1a0d56"></path><path d="M332 459L328 485L384 496Z" fill="#100a42" stroke="#100a42"></path><path d="M627 444L671 412L627 397Z" fill="#1f1260" stroke="#1f1260"></path><path d="M678 447L671 412L627 444Z" fill="#0f0a3a" stroke="#0f0a3a"></path><path d="M243 177L245 222L294 179Z" fill="#301f7e" stroke="#301f7e"></path><path d="M294 179L245 222L292 222Z" fill="#100a42" stroke="#100a42"></path><path d="M191 269L194 321L242 314Z" fill="#110a45" stroke="#110a45"></path><path d="M288 99L288 143L339 139Z" fill="#1a0d56" stroke="#1a0d56"></path><path d="M236 413L282 453L291 405Z" fill="#100a42" stroke="#100a42"></path><path d="M621 143L580 92L569 127Z" fill="#110a45" stroke="#110a45"></path><path d="M428 540L437 490L384 496Z" fill="#0f0a3e" stroke="#0f0a3e"></path><path d="M428 540L473 540L437 490Z" fill="#0f0a3a" stroke="#0f0a3a"></path><path d="M521 499L535 540L577 497Z" fill="#301f7e" stroke="#301f7e"></path><path d="M385 540L428 540L384 496Z" fill="#100a42" stroke="#100a42"></path><path d="M665 215L676 175L616 180Z" fill="#110a45" stroke="#110a45"></path><path d="M621 143L627 97L580 92Z" fill="#100a42" stroke="#100a42"></path><path d="M722 232L676 175L665 215Z" fill="#100a42" stroke="#100a42"></path><path d="M722 232L665 215L674 261Z" fill="#0f0a3a" stroke="#0f0a3a"></path><path d="M473 540L535 540L521 499Z" fill="#0f0a3e" stroke="#0f0a3e"></path><path d="M577 497L633 497L627 444Z" fill="#0f0a3e" stroke="#0f0a3e"></path><path d="M725 318L664 308L677 353Z" fill="#14094d" stroke="#14094d"></path><path d="M725 318L713 277L664 308Z" fill="#110a45" stroke="#110a45"></path><path d="M333 540L385 540L384 496Z" fill="#1a0d56" stroke="#1a0d56"></path><path d="M333 540L384 496L328 485Z" fill="#1a0d56" stroke="#1a0d56"></path><path d="M485 49L425 84L488 89Z" fill="#120a49" stroke="#120a49"></path><path d="M425 84L384 46L375 91Z" fill="#25166a" stroke="#25166a"></path><path d="M375 91L327 82L339 139Z" fill="#0f0a3e" stroke="#0f0a3e"></path><path d="M485 49L488 89L525 84Z" fill="#120a49" stroke="#120a49"></path><path d="M523 35L485 49L525 84Z" fill="#120a49" stroke="#120a49"></path><path d="M288 143L243 177L294 179Z" fill="#100a42" stroke="#100a42"></path><path d="M191 269L242 314L247 276Z" fill="#25166a" stroke="#25166a"></path><path d="M728 137L666 144L676 175Z" fill="#2a1a74" stroke="#2a1a74"></path><path d="M676 175L666 144L616 180Z" fill="#0f0a3e" stroke="#0f0a3e"></path><path d="M243 351L236 413L291 405Z" fill="#1f1260" stroke="#1f1260"></path><path d="M186 395L236 413L243 351Z" fill="#0f0a3e" stroke="#0f0a3e"></path><path d="M194 321L243 351L242 314Z" fill="#301f7e" stroke="#301f7e"></path><path d="M671 412L713 369L677 353Z" fill="#25166a" stroke="#25166a"></path><path d="M616 540L633 497L577 497Z" fill="#100a42" stroke="#100a42"></path><path d="M671 412L716 409L713 369Z" fill="#120a49" stroke="#120a49"></path><path d="M673 487L678 447L627 444Z" fill="#110a45" stroke="#110a45"></path><path d="M329 53L327 82L375 91Z" fill="#2a1a74" stroke="#2a1a74"></path><path d="M288 143L234 130L243 177Z" fill="#301f7e" stroke="#301f7e"></path><path d="M713 369L725 318L677 353Z" fill="#110a45" stroke="#110a45"></path><path d="M244 458L282 486L282 453Z" fill="#14094d" stroke="#14094d"></path><path d="M282 453L282 486L328 485Z" fill="#0f0a3e" stroke="#0f0a3e"></path><path d="M666 144L627 97L621 143Z" fill="#120a49" stroke="#120a49"></path><path d="M577 48L523 35L525 84Z" fill="#120a49" stroke="#120a49"></path><path d="M535 540L570 540L577 497Z" fill="#301f7e" stroke="#301f7e"></path><path d="M776 274L722 232L713 277Z" fill="#110a45" stroke="#110a45"></path><path d="M713 277L722 232L674 261Z" fill="#2a1a74" stroke="#2a1a74"></path><path d="M423 0L384 46L422 53Z" fill="#0f0a3e" stroke="#0f0a3e"></path><path d="M422 53L384 46L425 84Z" fill="#0f0a3a" stroke="#0f0a3a"></path><path d="M297 43L288 99L327 82Z" fill="#110a45" stroke="#110a45"></path><path d="M327 82L288 99L339 139Z" fill="#1f1260" stroke="#1f1260"></path><path d="M236 413L244 458L282 453Z" fill="#0f0a3e" stroke="#0f0a3e"></path><path d="M191 269L247 276L245 222Z" fill="#14094d" stroke="#14094d"></path><path d="M236 413L193 455L244 458Z" fill="#1a0d56" stroke="#1a0d56"></path><path d="M577 48L525 84L580 92Z" fill="#1f1260" stroke="#1f1260"></path><path d="M485 49L474 0L422 53Z" fill="#301f7e" stroke="#301f7e"></path><path d="M714 440L716 409L671 412Z" fill="#0f0a3e" stroke="#0f0a3e"></path><path d="M772 356L760 320L725 318Z" fill="#0f0a3e" stroke="#0f0a3e"></path><path d="M714 440L671 412L678 447Z" fill="#0f0a3a" stroke="#0f0a3a"></path><path d="M283 540L328 485L282 486Z" fill="#301f7e" stroke="#301f7e"></path><path d="M283 540L333 540L328 485Z" fill="#14094d" stroke="#14094d"></path><path d="M194 321L194 351L243 351Z" fill="#100a42" stroke="#100a42"></path><path d="M187 215L191 269L245 222Z" fill="#0f0a3e" stroke="#0f0a3e"></path><path d="M152 399L186 395L141 367Z" fill="#1a0d56" stroke="#1a0d56"></path><path d="M614 38L577 48L580 92Z" fill="#301f7e" stroke="#301f7e"></path><path d="M662 540L673 487L633 497Z" fill="#1a0d56" stroke="#1a0d56"></path><path d="M633 497L673 487L627 444Z" fill="#0f0a3a" stroke="#0f0a3a"></path><path d="M570 540L616 540L577 497Z" fill="#25166a" stroke="#25166a"></path><path d="M384 46L329 53L375 91Z" fill="#100a42" stroke="#100a42"></path><path d="M673 487L714 440L678 447Z" fill="#301f7e" stroke="#301f7e"></path><path d="M772 356L725 318L713 369Z" fill="#110a45" stroke="#110a45"></path><path d="M666 144L664 94L627 97Z" fill="#14094d" stroke="#14094d"></path><path d="M627 97L614 38L580 92Z" fill="#110a45" stroke="#110a45"></path><path d="M710 98L664 94L666 144Z" fill="#0f0a3e" stroke="#0f0a3e"></path><path d="M288 99L234 130L288 143Z" fill="#2a1a74" stroke="#2a1a74"></path><path d="M243 177L187 215L245 222Z" fill="#301f7e" stroke="#301f7e"></path><path d="M233 82L234 130L288 99Z" fill="#120a49" stroke="#120a49"></path><path d="M193 455L248 492L244 458Z" fill="#0f0a3a" stroke="#0f0a3a"></path><path d="M244 458L248 492L282 486Z" fill="#100a42" stroke="#100a42"></path><path d="M775 230L729 180L722 232Z" fill="#100a42" stroke="#100a42"></path><path d="M722 232L729 180L676 175Z" fill="#1a0d56" stroke="#1a0d56"></path><path d="M185 184L187 215L243 177Z" fill="#120a49" stroke="#120a49"></path><path d="M149 311L194 351L194 321Z" fill="#14094d" stroke="#14094d"></path><path d="M194 351L186 395L243 351Z" fill="#120a49" stroke="#120a49"></path><path d="M149 311L194 321L191 269Z" fill="#1a0d56" stroke="#1a0d56"></path><path d="M772 356L713 369L767 397Z" fill="#2a1a74" stroke="#2a1a74"></path><path d="M725 318L760 320L713 277Z" fill="#0f0a3a" stroke="#0f0a3a"></path><path d="M248 492L283 540L282 486Z" fill="#120a49" stroke="#120a49"></path><path d="M535 0L474 0L523 35Z" fill="#301f7e" stroke="#301f7e"></path><path d="M523 35L474 0L485 49Z" fill="#0f0a3e" stroke="#0f0a3e"></path><path d="M384 46L338 0L329 53Z" fill="#301f7e" stroke="#301f7e"></path><path d="M673 44L614 38L627 97Z" fill="#1f1260" stroke="#1f1260"></path><path d="M570 0L535 0L523 35Z" fill="#0f0a3a" stroke="#0f0a3a"></path><path d="M187 132L185 184L243 177Z" fill="#100a42" stroke="#100a42"></path><path d="M142 279L149 311L191 269Z" fill="#0f0a3e" stroke="#0f0a3e"></path><path d="M474 0L423 0L422 53Z" fill="#25166a" stroke="#25166a"></path><path d="M338 0L297 43L329 53Z" fill="#0f0a3e" stroke="#0f0a3e"></path><path d="M329 53L297 43L327 82Z" fill="#110a45" stroke="#110a45"></path><path d="M234 130L187 132L243 177Z" fill="#120a49" stroke="#120a49"></path><path d="M673 487L725 497L714 440Z" fill="#2a1a74" stroke="#2a1a74"></path><path d="M616 540L662 540L633 497Z" fill="#1f1260" stroke="#1f1260"></path><path d="M570 0L523 35L577 48Z" fill="#25166a" stroke="#25166a"></path><path d="M729 180L728 137L676 175Z" fill="#301f7e" stroke="#301f7e"></path><path d="M664 94L673 44L627 97Z" fill="#120a49" stroke="#120a49"></path><path d="M758 134L728 137L729 180Z" fill="#301f7e" stroke="#301f7e"></path><path d="M767 397L716 409L758 455Z" fill="#2a1a74" stroke="#2a1a74"></path><path d="M767 397L713 369L716 409Z" fill="#2a1a74" stroke="#2a1a74"></path><path d="M760 320L776 274L713 277Z" fill="#0f0a3a" stroke="#0f0a3a"></path><path d="M814 313L776 274L760 320Z" fill="#301f7e" stroke="#301f7e"></path><path d="M186 395L193 455L236 413Z" fill="#0f0a3a" stroke="#0f0a3a"></path><path d="M248 492L236 540L283 540Z" fill="#25166a" stroke="#25166a"></path><path d="M423 0L375 0L384 46Z" fill="#25166a" stroke="#25166a"></path><path d="M758 455L716 409L714 440Z" fill="#25166a" stroke="#25166a"></path><path d="M142 279L191 269L141 234Z" fill="#0f0a3a" stroke="#0f0a3a"></path><path d="M186 395L152 399L193 455Z" fill="#1f1260" stroke="#1f1260"></path><path d="M776 274L775 230L722 232Z" fill="#2a1a74" stroke="#2a1a74"></path><path d="M758 134L710 98L728 137Z" fill="#301f7e" stroke="#301f7e"></path><path d="M728 137L710 98L666 144Z" fill="#2a1a74" stroke="#2a1a74"></path><path d="M626 0L570 0L614 38Z" fill="#2a1a74" stroke="#2a1a74"></path><path d="M614 38L570 0L577 48Z" fill="#25166a" stroke="#25166a"></path><path d="M297 43L233 82L288 99Z" fill="#1a0d56" stroke="#1a0d56"></path><path d="M141 234L191 269L187 215Z" fill="#100a42" stroke="#100a42"></path><path d="M716 540L725 497L673 487Z" fill="#110a45" stroke="#110a45"></path><path d="M191 82L187 132L234 130Z" fill="#2a1a74" stroke="#2a1a74"></path><path d="M147 185L141 234L187 215Z" fill="#110a45" stroke="#110a45"></path><path d="M190 44L191 82L233 82Z" fill="#301f7e" stroke="#301f7e"></path><path d="M375 0L338 0L384 46Z" fill="#301f7e" stroke="#301f7e"></path><path d="M141 367L194 351L149 311Z" fill="#2a1a74" stroke="#2a1a74"></path><path d="M141 367L186 395L194 351Z" fill="#100a42" stroke="#100a42"></path><path d="M725 497L758 455L714 440Z" fill="#301f7e" stroke="#301f7e"></path><path d="M710 98L673 44L664 94Z" fill="#0f0a3a" stroke="#0f0a3a"></path><path d="M101 305L141 367L149 311Z" fill="#1a0d56" stroke="#1a0d56"></path><path d="M186 503L236 540L248 492Z" fill="#110a45" stroke="#110a45"></path><path d="M186 503L248 492L193 455Z" fill="#301f7e" stroke="#301f7e"></path><path d="M147 185L187 215L185 184Z" fill="#0f0a3a" stroke="#0f0a3a"></path><path d="M142 279L101 305L149 311Z" fill="#110a45" stroke="#110a45"></path><path d="M823 188L775 175L775 230Z" fill="#0f0a3a" stroke="#0f0a3a"></path><path d="M775 230L775 175L729 180Z" fill="#0f0a3a" stroke="#0f0a3a"></path><path d="M710 98L722 53L673 44Z" fill="#25166a" stroke="#25166a"></path><path d="M775 175L758 134L729 180Z" fill="#14094d" stroke="#14094d"></path><path d="M187 132L147 185L185 184Z" fill="#1f1260" stroke="#1f1260"></path><path d="M662 0L626 0L614 38Z" fill="#14094d" stroke="#14094d"></path><path d="M139 458L193 455L152 399Z" fill="#0f0a3a" stroke="#0f0a3a"></path><path d="M150 502L186 503L193 455Z" fill="#14094d" stroke="#14094d"></path><path d="M662 540L716 540L673 487Z" fill="#1a0d56" stroke="#1a0d56"></path><path d="M725 497L758 488L758 455Z" fill="#1a0d56" stroke="#1a0d56"></path><path d="M771 540L758 488L725 497Z" fill="#1a0d56" stroke="#1a0d56"></path><path d="M823 368L772 356L767 397Z" fill="#1a0d56" stroke="#1a0d56"></path><path d="M823 368L814 313L772 356Z" fill="#14094d" stroke="#14094d"></path><path d="M772 356L814 313L760 320Z" fill="#25166a" stroke="#25166a"></path><path d="M776 274L818 230L775 230Z" fill="#2a1a74" stroke="#2a1a74"></path><path d="M823 368L767 397L815 410Z" fill="#14094d" stroke="#14094d"></path><path d="M814 313L815 278L776 274Z" fill="#1a0d56" stroke="#1a0d56"></path><path d="M233 82L191 82L234 130Z" fill="#0f0a3e" stroke="#0f0a3e"></path><path d="M187 132L139 135L147 185Z" fill="#120a49" stroke="#120a49"></path><path d="M235 35L233 82L297 43Z" fill="#100a42" stroke="#100a42"></path><path d="M282 0L235 35L297 43Z" fill="#301f7e" stroke="#301f7e"></path><path d="M338 0L282 0L297 43Z" fill="#0f0a3e" stroke="#0f0a3e"></path><path d="M186 503L201 540L236 540Z" fill="#0f0a3a" stroke="#0f0a3a"></path><path d="M770 84L722 53L710 98Z" fill="#1f1260" stroke="#1f1260"></path><path d="M673 44L662 0L614 38Z" fill="#1a0d56" stroke="#1a0d56"></path><path d="M815 278L818 230L776 274Z" fill="#25166a" stroke="#25166a"></path><path d="M820 131L770 84L758 134Z" fill="#25166a" stroke="#25166a"></path><path d="M758 134L770 84L710 98Z" fill="#0f0a3e" stroke="#0f0a3e"></path><path d="M855 270L818 230L815 278Z" fill="#110a45" stroke="#110a45"></path><path d="M728 0L662 0L673 44Z" fill="#120a49" stroke="#120a49"></path><path d="M104 413L139 458L152 399Z" fill="#0f0a3e" stroke="#0f0a3e"></path><path d="M186 503L147 540L201 540Z" fill="#14094d" stroke="#14094d"></path><path d="M104 413L152 399L141 367Z" fill="#1f1260" stroke="#1f1260"></path><path d="M815 410L767 397L809 452Z" fill="#301f7e" stroke="#301f7e"></path><path d="M814 313L855 270L815 278Z" fill="#301f7e" stroke="#301f7e"></path><path d="M97 267L142 279L141 234Z" fill="#1a0d56" stroke="#1a0d56"></path><path d="M97 267L101 305L142 279Z" fill="#0f0a3a" stroke="#0f0a3a"></path><path d="M809 452L767 397L758 455Z" fill="#110a45" stroke="#110a45"></path><path d="M153 94L139 135L187 132Z" fill="#1a0d56" stroke="#1a0d56"></path><path d="M102 224L97 267L141 234Z" fill="#1a0d56" stroke="#1a0d56"></path><path d="M153 94L187 132L191 82Z" fill="#301f7e" stroke="#301f7e"></path><path d="M102 224L141 234L147 185Z" fill="#1a0d56" stroke="#1a0d56"></path><path d="M100 171L102 224L147 185Z" fill="#0f0a3a" stroke="#0f0a3a"></path><path d="M139 458L150 502L193 455Z" fill="#1a0d56" stroke="#1a0d56"></path><path d="M820 131L758 134L775 175Z" fill="#25166a" stroke="#25166a"></path><path d="M722 53L728 0L673 44Z" fill="#14094d" stroke="#14094d"></path><path d="M137 54L153 94L191 82Z" fill="#2a1a74" stroke="#2a1a74"></path><path d="M139 135L100 171L147 185Z" fill="#0f0a3e" stroke="#0f0a3e"></path><path d="M190 44L233 82L235 35Z" fill="#1a0d56" stroke="#1a0d56"></path><path d="M856 226L823 188L818 230Z" fill="#110a45" stroke="#110a45"></path><path d="M818 230L823 188L775 230Z" fill="#2a1a74" stroke="#2a1a74"></path><path d="M866 319L814 313L823 368Z" fill="#301f7e" stroke="#301f7e"></path><path d="M758 488L809 452L758 455Z" fill="#0f0a3e" stroke="#0f0a3e"></path><path d="M822 499L809 452L758 488Z" fill="#1a0d56" stroke="#1a0d56"></path><path d="M195 0L190 44L235 35Z" fill="#100a42" stroke="#100a42"></path><path d="M89 366L104 413L141 367Z" fill="#2a1a74" stroke="#2a1a74"></path><path d="M139 458L94 488L150 502Z" fill="#110a45" stroke="#110a45"></path><path d="M89 366L141 367L101 305Z" fill="#301f7e" stroke="#301f7e"></path><path d="M282 0L236 0L235 35Z" fill="#120a49" stroke="#120a49"></path><path d="M52 354L89 366L101 305Z" fill="#25166a" stroke="#25166a"></path><path d="M716 540L771 540L725 497Z" fill="#1a0d56" stroke="#1a0d56"></path><path d="M88 143L100 171L139 135Z" fill="#2a1a74" stroke="#2a1a74"></path><path d="M102 224L56 234L97 267Z" fill="#14094d" stroke="#14094d"></path><path d="M97 267L45 305L101 305Z" fill="#14094d" stroke="#14094d"></path><path d="M866 319L823 368L862 369Z" fill="#301f7e" stroke="#301f7e"></path><path d="M866 319L855 270L814 313Z" fill="#14094d" stroke="#14094d"></path><path d="M854 174L820 131L823 188Z" fill="#1a0d56" stroke="#1a0d56"></path><path d="M823 188L820 131L775 175Z" fill="#14094d" stroke="#14094d"></path><path d="M855 270L856 226L818 230Z" fill="#110a45" stroke="#110a45"></path><path d="M105 540L147 540L150 502Z" fill="#120a49" stroke="#120a49"></path><path d="M150 502L147 540L186 503Z" fill="#1a0d56" stroke="#1a0d56"></path><path d="M768 39L722 53L770 84Z" fill="#1a0d56" stroke="#1a0d56"></path><path d="M768 39L728 0L722 53Z" fill="#25166a" stroke="#25166a"></path><path d="M819 51L768 39L770 84Z" fill="#25166a" stroke="#25166a"></path><path d="M862 369L823 368L856 409Z" fill="#1a0d56" stroke="#1a0d56"></path><path d="M855 270L917 261L856 226Z" fill="#1a0d56" stroke="#1a0d56"></path><path d="M55 410L89 443L104 413Z" fill="#301f7e" stroke="#301f7e"></path><path d="M104 413L89 443L139 458Z" fill="#110a45" stroke="#110a45"></path><path d="M856 409L815 410L809 452Z" fill="#2a1a74" stroke="#2a1a74"></path><path d="M856 409L823 368L815 410Z" fill="#100a42" stroke="#100a42"></path><path d="M236 0L195 0L235 35Z" fill="#0f0a3e" stroke="#0f0a3e"></path><path d="M190 44L137 54L191 82Z" fill="#1f1260" stroke="#1f1260"></path><path d="M103 95L88 143L139 135Z" fill="#100a42" stroke="#100a42"></path><path d="M873 440L856 409L809 452Z" fill="#100a42" stroke="#100a42"></path><path d="M771 540L822 499L758 488Z" fill="#1f1260" stroke="#1f1260"></path><path d="M856 226L854 174L823 188Z" fill="#14094d" stroke="#14094d"></path><path d="M820 131L822 90L770 84Z" fill="#0f0a3a" stroke="#0f0a3a"></path><path d="M861 143L854 174L920 184Z" fill="#2a1a74" stroke="#2a1a74"></path><path d="M103 95L139 135L153 94Z" fill="#14094d" stroke="#14094d"></path><path d="M42 187L56 234L102 224Z" fill="#120a49" stroke="#120a49"></path><path d="M89 366L55 410L104 413Z" fill="#1a0d56" stroke="#1a0d56"></path><path d="M146 0L137 54L190 44Z" fill="#0f0a3a" stroke="#0f0a3a"></path><path d="M864 99L822 90L820 131Z" fill="#120a49" stroke="#120a49"></path><path d="M768 39L761 0L728 0Z" fill="#120a49" stroke="#120a49"></path><path d="M42 187L102 224L100 171Z" fill="#100a42" stroke="#100a42"></path><path d="M50 454L94 488L89 443Z" fill="#14094d" stroke="#14094d"></path><path d="M89 443L94 488L139 458Z" fill="#0f0a3e" stroke="#0f0a3e"></path><path d="M45 305L52 354L101 305Z" fill="#25166a" stroke="#25166a"></path><path d="M137 54L103 95L153 94Z" fill="#1f1260" stroke="#1f1260"></path><path d="M88 143L42 187L100 171Z" fill="#120a49" stroke="#120a49"></path><path d="M56 234L49 263L97 267Z" fill="#14094d" stroke="#14094d"></path><path d="M49 263L45 305L97 267Z" fill="#0f0a3e" stroke="#0f0a3e"></path><path d="M811 0L761 0L768 39Z" fill="#0f0a3a" stroke="#0f0a3a"></path><path d="M50 454L55 410L0 441Z" fill="#0f0a3e" stroke="#0f0a3e"></path><path d="M52 354L55 410L89 366Z" fill="#0f0a3a" stroke="#0f0a3a"></path><path d="M920 184L854 174L856 226Z" fill="#2a1a74" stroke="#2a1a74"></path><path d="M854 174L861 143L820 131Z" fill="#100a42" stroke="#100a42"></path><path d="M822 90L819 51L770 84Z" fill="#0f0a3a" stroke="#0f0a3a"></path><path d="M771 540L823 540L822 499Z" fill="#14094d" stroke="#14094d"></path><path d="M856 501L873 440L809 452Z" fill="#2a1a74" stroke="#2a1a74"></path><path d="M856 501L809 452L822 499Z" fill="#110a45" stroke="#110a45"></path><path d="M917 409L903 359L862 369Z" fill="#1f1260" stroke="#1f1260"></path><path d="M862 369L903 359L866 319Z" fill="#1a0d56" stroke="#1a0d56"></path><path d="M866 319L917 261L855 270Z" fill="#2a1a74" stroke="#2a1a74"></path><path d="M56 501L105 540L94 488Z" fill="#120a49" stroke="#120a49"></path><path d="M94 488L105 540L150 502Z" fill="#100a42" stroke="#100a42"></path><path d="M856 54L819 51L822 90Z" fill="#14094d" stroke="#14094d"></path><path d="M0 219L0 275L49 263Z" fill="#25166a" stroke="#25166a"></path><path d="M0 275L0 322L45 305Z" fill="#301f7e" stroke="#301f7e"></path><path d="M40 127L42 187L88 143Z" fill="#14094d" stroke="#14094d"></path><path d="M823 540L856 501L822 499Z" fill="#25166a" stroke="#25166a"></path><path d="M195 0L146 0L190 44Z" fill="#0f0a3e" stroke="#0f0a3e"></path><path d="M137 54L95 48L103 95Z" fill="#1a0d56" stroke="#1a0d56"></path><path d="M103 95L40 127L88 143Z" fill="#1a0d56" stroke="#1a0d56"></path><path d="M917 409L856 409L873 440Z" fill="#100a42" stroke="#100a42"></path><path d="M917 409L862 369L856 409Z" fill="#2a1a74" stroke="#2a1a74"></path><path d="M55 410L50 454L89 443Z" fill="#120a49" stroke="#120a49"></path><path d="M0 362L55 410L52 354Z" fill="#0f0a3a" stroke="#0f0a3a"></path><path d="M921 136L864 99L861 143Z" fill="#100a42" stroke="#100a42"></path><path d="M861 143L864 99L820 131Z" fill="#25166a" stroke="#25166a"></path><path d="M105 0L95 48L137 54Z" fill="#0f0a3e" stroke="#0f0a3e"></path><path d="M921 315L917 261L866 319Z" fill="#0f0a3a" stroke="#0f0a3a"></path><path d="M50 454L56 501L94 488Z" fill="#120a49" stroke="#120a49"></path><path d="M960 314L921 315L960 368Z" fill="#1f1260" stroke="#1f1260"></path><path d="M903 359L921 315L866 319Z" fill="#110a45" stroke="#110a45"></path><path d="M917 261L917 230L856 226Z" fill="#301f7e" stroke="#301f7e"></path><path d="M960 228L917 230L917 261Z" fill="#2a1a74" stroke="#2a1a74"></path><path d="M856 54L811 0L819 51Z" fill="#2a1a74" stroke="#2a1a74"></path><path d="M819 51L811 0L768 39Z" fill="#2a1a74" stroke="#2a1a74"></path><path d="M39 94L40 127L103 95Z" fill="#100a42" stroke="#100a42"></path><path d="M0 275L45 305L49 263Z" fill="#1f1260" stroke="#1f1260"></path><path d="M864 99L856 54L822 90Z" fill="#100a42" stroke="#100a42"></path><path d="M907 36L856 54L864 99Z" fill="#0f0a3e" stroke="#0f0a3e"></path><path d="M910 459L917 409L873 440Z" fill="#301f7e" stroke="#301f7e"></path><path d="M49 263L56 234L0 219Z" fill="#100a42" stroke="#100a42"></path><path d="M45 305L0 322L52 354Z" fill="#0f0a3e" stroke="#0f0a3e"></path><path d="M50 454L0 488L56 501Z" fill="#301f7e" stroke="#301f7e"></path><path d="M0 219L56 234L42 187Z" fill="#1a0d56" stroke="#1a0d56"></path><path d="M0 322L0 362L52 354Z" fill="#0f0a3a" stroke="#0f0a3a"></path><path d="M960 228L920 184L917 230Z" fill="#100a42" stroke="#100a42"></path><path d="M917 230L920 184L856 226Z" fill="#301f7e" stroke="#301f7e"></path><path d="M57 43L39 94L103 95Z" fill="#2a1a74" stroke="#2a1a74"></path><path d="M146 0L105 0L137 54Z" fill="#0f0a3a" stroke="#0f0a3a"></path><path d="M823 540L870 540L856 501Z" fill="#0f0a3e" stroke="#0f0a3e"></path><path d="M856 501L910 459L873 440Z" fill="#1f1260" stroke="#1f1260"></path><path d="M917 493L910 459L856 501Z" fill="#2a1a74" stroke="#2a1a74"></path><path d="M0 175L0 219L42 187Z" fill="#100a42" stroke="#100a42"></path><path d="M57 43L103 95L95 48Z" fill="#1a0d56" stroke="#1a0d56"></path><path d="M40 127L0 175L42 187Z" fill="#25166a" stroke="#25166a"></path><path d="M0 362L0 414L55 410Z" fill="#25166a" stroke="#25166a"></path><path d="M0 540L47 540L56 501Z" fill="#110a45" stroke="#110a45"></path><path d="M56 501L47 540L105 540Z" fill="#2a1a74" stroke="#2a1a74"></path><path d="M0 134L0 175L40 127Z" fill="#120a49" stroke="#120a49"></path><path d="M105 0L57 43L95 48Z" fill="#301f7e" stroke="#301f7e"></path><path d="M39 94L0 134L40 127Z" fill="#110a45" stroke="#110a45"></path><path d="M960 188L921 136L920 184Z" fill="#0f0a3e" stroke="#0f0a3e"></path><path d="M920 184L921 136L861 143Z" fill="#0f0a3a" stroke="#0f0a3a"></path><path d="M0 414L0 441L55 410Z" fill="#0f0a3a" stroke="#0f0a3a"></path><path d="M870 540L917 493L856 501Z" fill="#0f0a3e" stroke="#0f0a3e"></path><path d="M960 413L960 368L917 409Z" fill="#301f7e" stroke="#301f7e"></path><path d="M960 368L921 315L903 359Z" fill="#1f1260" stroke="#1f1260"></path><path d="M0 84L0 134L39 94Z" fill="#100a42" stroke="#100a42"></path><path d="M960 368L903 359L917 409Z" fill="#110a45" stroke="#110a45"></path><path d="M921 315L960 265L917 261Z" fill="#2a1a74" stroke="#2a1a74"></path><path d="M960 314L960 265L921 315Z" fill="#1a0d56" stroke="#1a0d56"></path><path d="M960 128L920 99L921 136Z" fill="#25166a" stroke="#25166a"></path><path d="M921 136L920 99L864 99Z" fill="#25166a" stroke="#25166a"></path><path d="M856 54L872 0L811 0Z" fill="#0f0a3e" stroke="#0f0a3e"></path><path d="M960 413L917 409L960 444Z" fill="#14094d" stroke="#14094d"></path><path d="M960 265L960 228L917 261Z" fill="#100a42" stroke="#100a42"></path><path d="M0 441L0 488L50 454Z" fill="#110a45" stroke="#110a45"></path><path d="M907 36L872 0L856 54Z" fill="#14094d" stroke="#14094d"></path><path d="M870 540L912 540L917 493Z" fill="#120a49" stroke="#120a49"></path><path d="M960 444L917 409L910 459Z" fill="#1a0d56" stroke="#1a0d56"></path><path d="M960 444L910 459L917 493Z" fill="#1f1260" stroke="#1f1260"></path><path d="M960 228L960 188L920 184Z" fill="#0f0a3a" stroke="#0f0a3a"></path><path d="M0 37L0 84L57 43Z" fill="#0f0a3a" stroke="#0f0a3a"></path><path d="M57 43L0 84L39 94Z" fill="#25166a" stroke="#25166a"></path><path d="M960 501L960 444L917 493Z" fill="#25166a" stroke="#25166a"></path><path d="M920 99L907 36L864 99Z" fill="#110a45" stroke="#110a45"></path><path d="M960 43L907 36L920 99Z" fill="#0f0a3a" stroke="#0f0a3a"></path><path d="M105 0L44 0L57 43Z" fill="#110a45" stroke="#110a45"></path><path d="M0 488L0 540L56 501Z" fill="#0f0a3e" stroke="#0f0a3e"></path><path d="M960 188L960 128L921 136Z" fill="#120a49" stroke="#120a49"></path><path d="M912 540L960 501L917 493Z" fill="#120a49" stroke="#120a49"></path><path d="M960 128L960 97L920 99Z" fill="#120a49" stroke="#120a49"></path><path d="M44 0L0 37L57 43Z" fill="#25166a" stroke="#25166a"></path><path d="M960 0L908 0L907 36Z" fill="#0f0a3e" stroke="#0f0a3e"></path><path d="M907 36L908 0L872 0Z" fill="#110a45" stroke="#110a45"></path><path d="M912 540L960 540L960 501Z" fill="#0f0a3e" stroke="#0f0a3e"></path><path d="M44 0L0 0L0 37Z" fill="#301f7e" stroke="#301f7e"></path><path d="M960 97L960 43L920 99Z" fill="#0f0a3e" stroke="#0f0a3e"></path><path d="M960 43L960 0L907 36Z" fill="#1a0d56" stroke="#1a0d56"></path></g></svg>