<svg id="visual" viewBox="0 0 960 540" width="960" height="540" xmlns="http://www.w3.org/2000/svg" xmlns:xlink="http://www.w3.org/1999/xlink" version="1.1"><path d="M0 270L17.8 259.7C35.7 249.3 71.3 228.7 106.8 242.2C142.3 255.7 177.7 303.3 213.2 323C248.7 342.7 284.3 334.3 320 320.3C355.7 306.3 391.3 286.7 426.8 261C462.3 235.3 497.7 203.7 533.2 203C568.7 202.3 604.3 232.7 640 242C675.7 251.3 711.3 239.7 746.8 219.8C782.3 200 817.7 172 853.2 160.5C888.7 149 924.3 154 942.2 156.5L960 159L960 541L942.2 541C924.3 541 888.7 541 853.2 541C817.7 541 782.3 541 746.8 541C711.3 541 675.7 541 640 541C604.3 541 568.7 541 533.2 541C497.7 541 462.3 541 426.8 541C391.3 541 355.7 541 320 541C284.3 541 248.7 541 213.2 541C177.7 541 142.3 541 106.8 541C71.3 541 35.7 541 17.8 541L0 541Z" fill="#FCAF3C" stroke-linecap="round" stroke-linejoin="miter"></path></svg>